<?xml version="1.0" encoding="UTF-8"?>
<svg version="1.1" xmlns="http://www.w3.org/2000/svg" width="272" height="239">
<path d="M0 0 C89.76 0 179.52 0 272 0 C272 78.87 272 157.74 272 239 C182.24 239 92.48 239 0 239 C0 160.13 0 81.26 0 0 Z " fill="#232323" transform="translate(0,0)"/>
<path d="M0 0 C89.76 0 179.52 0 272 0 C272 78.87 272 157.74 272 239 C182.24 239 92.48 239 0 239 C0 160.13 0 81.26 0 0 Z M66.1875 28.4375 C65.34251953 29.30181641 65.34251953 29.30181641 64.48046875 30.18359375 C61.00764626 34.44444456 60.74400468 37.76399897 60.71911621 43.2472229 C60.71317397 43.97862437 60.70723172 44.71002583 60.70110941 45.46359098 C60.68376095 47.91538957 60.68072116 50.36699256 60.67773438 52.81884766 C60.66847599 54.57659318 60.6584264 56.33433469 60.64764404 58.09207153 C60.62140677 62.86921174 60.60850767 67.64629573 60.59962273 72.42349672 C60.59375804 75.40996715 60.5855477 78.39642227 60.57661438 81.38288498 C60.54926405 90.73211013 60.52993234 100.08130023 60.5222106 109.43056262 C60.51325602 120.21268 60.47819197 130.99428943 60.42020941 141.77625239 C60.37692157 150.11613358 60.35679909 158.45587216 60.35412836 166.79586446 C60.35203564 171.77400645 60.34029434 176.75167096 60.30448914 181.72969437 C60.27143397 186.41666139 60.2672606 191.10279454 60.28476715 195.78983688 C60.28630312 197.50464874 60.27768519 199.21950627 60.25785065 200.9342041 C60.15376101 210.49814494 60.31344523 218.47152288 67 226 C67.72249986 226.83422816 67.72249986 226.83422816 68.45959568 227.68530941 C73.87128281 232.61163648 81.19524165 231.7096544 88.07006836 231.6628418 C89.49653966 231.67126352 90.92299984 231.68179242 92.34944153 231.69425964 C96.20914376 231.72124271 100.06819786 231.71662448 103.92795253 231.70455909 C107.15603374 231.69741157 110.38399631 231.70593807 113.61206824 231.71446449 C121.23033907 231.73439626 128.84829595 231.72887107 136.46655273 231.70678711 C144.31313811 231.68442705 152.15890059 231.70202156 160.00540823 231.73983639 C166.7547267 231.7711151 173.50379104 231.77897281 180.25317293 231.76788265 C184.27879581 231.76140919 188.3039441 231.76333187 192.32951164 231.78720665 C196.1162779 231.80852298 199.90188739 231.80039963 203.68858147 231.77011299 C205.07363074 231.76380738 206.45877066 231.76759386 207.84375381 231.78252411 C215.34712815 231.85681997 220.72534533 231.66478251 226.51116276 226.57873249 C232.19045252 220.55653005 233.1164683 215.15631324 233.14044189 207.11106873 C233.14615204 205.95730743 233.15186218 204.80354614 233.15774536 203.61482239 C233.15886322 202.36319809 233.15998108 201.11157379 233.16113281 199.82202148 C233.16576625 198.47951116 233.17079161 197.13700214 233.17617798 195.79449463 C233.18924702 192.16033306 233.19573529 188.52618992 233.20018864 184.89200854 C233.2031262 182.62016794 233.20723212 180.34833231 233.21169281 178.07649422 C233.22534869 170.96394356 233.2350266 163.85140433 233.2388947 156.73884147 C233.2433812 148.53547577 233.2609644 140.33227621 233.2898953 132.12896103 C233.31150611 125.78061566 233.32159854 119.43231708 233.32293582 113.08393532 C233.3239836 109.29492513 233.3298865 105.50607154 233.34775543 101.71710014 C233.36422748 98.15557538 233.36639604 94.59432515 233.35761642 91.03277588 C233.35647864 89.10504665 233.37019975 87.17732654 233.3843689 85.24964905 C233.37879974 84.09870758 233.37323059 82.94776611 233.36749268 81.76194763 C233.36895924 80.7640644 233.3704258 79.76618116 233.3719368 78.73805904 C232.64470319 73.38443829 229.56698946 70.34945493 225.5625 67 C222.29474174 64.1893076 219.68222018 61.37440604 217 58 C214.98946237 56.19093587 212.9327063 54.44260243 210.875 52.6875 C208.62339006 50.66105106 206.89058185 48.36322732 205 46 C203.76553822 44.89899354 202.51347481 43.81758724 201.25 42.75 C198.23199291 40.17910507 195.59171594 37.49986019 193 34.5 C189.31828421 30.24233263 185.30726219 26.60907755 181 23 C180.505 22.505 180.505 22.505 180 22 C176.84054485 21.88860857 173.702752 21.84259161 170.54248047 21.83886719 C169.54896072 21.83390228 168.55544098 21.82893738 167.53181458 21.82382202 C164.22693196 21.80915268 160.9220974 21.80238905 157.6171875 21.796875 C155.32610065 21.79112567 153.03501381 21.78536791 150.743927 21.77960205 C145.93019384 21.76907726 141.11647744 21.76324487 136.30273438 21.75976562 C130.13896065 21.75429023 123.97540888 21.73028872 117.81170464 21.70179367 C113.0744462 21.68315036 108.33724091 21.67796069 103.59994888 21.67642975 C101.32819536 21.67340446 99.05644275 21.66538015 96.78472519 21.65224457 C93.60094227 21.63515574 90.41769713 21.63707194 87.23388672 21.64355469 C85.82930458 21.62973251 85.82930458 21.62973251 84.39634705 21.6156311 C77.108568 21.6620247 71.40599642 22.95013492 66.1875 28.4375 Z " fill="#222222" transform="translate(0,0)"/>
<path d="M0 0 C0.86204041 -0.01149078 1.72408081 -0.02298157 2.61224365 -0.03482056 C3.5499913 -0.0422226 4.48773895 -0.04962463 5.4539032 -0.05725098 C6.94483994 -0.07433609 6.94483994 -0.07433609 8.46589661 -0.09176636 C18.83667403 -0.20217509 29.20815053 -0.2497954 39.57939148 -0.29260254 C44.50031766 -0.31490527 49.42048878 -0.35672079 54.34111023 -0.41564941 C60.28506811 -0.48668919 66.22831359 -0.52342665 72.17267418 -0.53572083 C74.43613039 -0.54612593 76.69956484 -0.5685606 78.96277809 -0.60331726 C82.13254138 -0.64949081 85.29950347 -0.65152737 88.4695282 -0.64318848 C89.40120316 -0.66678436 90.33287811 -0.69038025 91.29278564 -0.71469116 C96.3573918 -0.65029816 98.99311065 -0.04868507 102.63619995 3.59692383 C103.64775337 4.78280699 104.65490589 5.9724713 105.6558075 7.1673584 C106.4808075 7.8067334 107.3058075 8.4461084 108.1558075 9.1048584 C110.42091124 10.97356899 112.13624916 12.81519982 114.0308075 15.0423584 C116.26523089 17.66369494 118.49372677 19.98278095 121.1558075 22.1673584 C124.4727759 24.89201101 127.13429556 27.96343362 129.9058075 31.2298584 C132.05547213 33.60984425 134.42401964 35.56683294 136.897995 37.5970459 C139.5354998 39.95321686 141.73492104 42.64688455 144.0151825 45.34313965 C146.01860345 47.57075295 148.31465234 49.30820577 150.6558075 51.1673584 C151.69126744 54.27373822 151.78404591 56.41809442 151.78952026 59.67533875 C151.79591774 61.39329147 151.79591774 61.39329147 151.80244446 63.14595032 C151.80199127 64.40364731 151.80153809 65.6613443 151.80107117 66.95715332 C151.80406323 68.29435317 151.80746587 69.63155215 151.81124878 70.96875 C151.82009103 74.60329572 151.82242707 78.23781791 151.82306457 81.87237334 C151.82377527 84.14472368 151.82591005 86.41706803 151.82856178 88.68941689 C151.83781797 96.62192795 151.84189658 104.55442219 151.84111023 112.48693848 C151.84051028 119.87192453 151.85104504 127.25683734 151.86685389 134.64180487 C151.87995222 140.98758893 151.88529312 147.33334913 151.88465482 153.67914659 C151.88440038 157.46658133 151.8872212 161.25395107 151.89783287 165.0413723 C151.90755176 168.60774864 151.90756719 172.17399839 151.90031624 175.74037933 C151.8987806 177.66396705 151.90709182 179.58755484 151.91575623 181.51112366 C151.85775953 197.54202255 151.85775953 197.54202255 146.8433075 202.9798584 C146.36248718 203.52255371 145.88166687 204.06524902 145.38627625 204.62438965 C141.28134756 208.2845405 138.059353 209.5424809 132.56564331 209.5684967 C131.34186478 209.58129166 130.11808624 209.59408661 128.85722351 209.60726929 C127.50907869 209.60622085 126.16093409 209.60483631 124.81278992 209.60314941 C123.38661916 209.61213049 121.96045569 209.62233954 120.53430176 209.63368225 C116.66637633 209.66015321 112.79865009 209.66721452 108.93064284 209.66912961 C106.51185973 209.67126413 104.09312703 209.6776728 101.67435646 209.68562126 C93.22958291 209.71336655 84.78495129 209.72562799 76.34013367 209.7232666 C68.47886308 209.72146514 60.61821067 209.75310594 52.75709647 209.80049759 C45.99935995 209.83977978 39.241825 209.85581596 32.48397523 209.85390037 C28.45157111 209.85313694 24.41971637 209.86160421 20.38742638 209.89343452 C16.59254447 209.92257346 12.79873342 209.92265304 9.00381279 209.90088463 C7.61551593 209.89775856 6.22715129 209.90476827 4.83897018 209.922966 C-2.33271768 210.01084881 -8.26068197 210.07131686 -13.73369217 205.00716782 C-14.53088984 204.09646215 -14.53088984 204.09646215 -15.3441925 203.1673584 C-16.11973543 202.28327742 -16.11973543 202.28327742 -16.91094589 201.38133621 C-21.97679405 194.11820794 -21.03800731 185.17707979 -20.97529602 176.71740723 C-20.98044008 174.95243105 -20.98772503 173.18746002 -20.99697876 171.42250061 C-21.0154349 166.64986068 -21.00259251 161.87778202 -20.98288846 157.10516572 C-20.96646047 152.10315986 -20.97532027 147.10118838 -20.98040771 142.09916687 C-20.98492278 133.70391914 -20.96909214 125.30889465 -20.94111633 116.91369629 C-20.90903581 107.2119956 -20.90909423 97.51069675 -20.9263311 87.80896741 C-20.94219862 78.46557255 -20.93546319 69.12232482 -20.91839409 59.77893639 C-20.91152726 55.80655684 -20.91255217 51.83429536 -20.91993904 47.8619175 C-20.92760477 43.18564127 -20.9154664 38.50982218 -20.88809013 33.83362389 C-20.88120943 32.11877677 -20.88110497 30.40388694 -20.88830566 28.68904114 C-20.89700953 26.3461254 -20.88103066 24.00461762 -20.8588562 21.66181946 C-20.85604928 20.35165769 -20.85324236 19.04149591 -20.85035038 17.69163227 C-20.01253091 11.85806648 -16.6956268 8.11986893 -12.3441925 4.3548584 C-11.6841925 3.77091309 -11.0241925 3.18696777 -10.3441925 2.58532715 C-7.08604065 0.27534839 -3.92067206 0.0428931 0 0 Z M-8.3441925 18.1673584 C-9.09190426 21.51763703 -9.09190426 21.51763703 -8.97911072 25.25804138 C-8.98691067 25.96045112 -8.99471062 26.66286085 -9.00274694 27.38655573 C-9.02265229 29.73451892 -9.00690996 32.08085852 -8.99116516 34.42883301 C-8.99794206 36.11440475 -9.00684561 37.79996909 -9.01771545 39.48551941 C-9.04050868 44.06004514 -9.03167201 48.634007 -9.01582003 53.20854259 C-9.00315904 57.99704045 -9.01490188 62.78549011 -9.02275085 67.57398987 C-9.03184772 75.6165127 -9.01985946 83.65880597 -8.99604797 91.70129395 C-8.96884585 100.9962594 -8.97764402 110.29067633 -9.00518 119.58562845 C-9.02788005 127.56797029 -9.03106649 135.55014712 -9.01798666 143.53251082 C-9.01019588 148.29913385 -9.00914008 153.06549921 -9.0256691 157.83210564 C-9.04012733 162.31470812 -9.03006768 166.79660461 -9.00119781 171.27913094 C-8.99459379 172.92302402 -8.99647305 174.56697665 -9.00751114 176.21084595 C-9.02120689 178.45792621 -9.00400668 180.70275448 -8.97911072 182.94969177 C-8.97722559 184.20605407 -8.97534046 185.46241636 -8.97339821 186.75685024 C-8.11819744 191.39232826 -6.81254775 192.9763955 -3.3441925 196.1673584 C-0.58990124 197.04744016 -0.58990124 197.04744016 2.42448425 196.90907288 C4.15306419 196.92794807 4.15306419 196.92794807 5.91656494 196.94720459 C7.7993943 196.92191681 7.7993943 196.92191681 9.72026062 196.89611816 C11.06263053 196.8993389 12.40499635 196.90515834 13.74734497 196.91337585 C17.38611188 196.9278959 21.02377194 196.90498906 24.66240501 196.87451673 C28.47305883 196.84812777 32.28367956 196.85344849 36.09440613 196.854599 C42.49347915 196.85179092 48.89212493 196.82576595 55.2910614 196.78479004 C62.68531627 196.73761498 70.07910337 196.72179582 77.47349787 196.7239967 C85.35095744 196.72602458 93.22823708 196.70519237 101.10564232 196.67765689 C103.37314922 196.67126862 105.64062701 196.66913413 107.90814209 196.66794014 C111.47384763 196.66492188 115.03916193 196.64656834 118.60473824 196.61644173 C120.53480139 196.60352781 122.46494482 196.60517874 124.39505005 196.60726929 C126.12362999 196.58807686 126.12362999 196.58807686 127.88713074 196.5684967 C128.88631279 196.56346917 129.88549484 196.55844164 130.91495514 196.55326176 C134.16175511 196.09612257 136.04822491 195.13602497 138.6558075 193.1673584 C139.66666091 190.13479817 139.7791678 188.11822656 139.77606201 184.94721985 C139.77743668 183.86608414 139.77881134 182.78494843 139.78022766 181.67105103 C139.77663239 180.48494232 139.77303711 179.29883362 139.76933289 178.07678223 C139.76955193 176.20343956 139.76955193 176.20343956 139.76977539 174.29225159 C139.76919763 170.86689507 139.76417834 167.44159864 139.75720143 164.01625276 C139.75095505 160.43679624 139.75036308 156.85733894 139.74917603 153.27787781 C139.74606651 146.49935384 139.73785821 139.72084598 139.72782654 132.94232911 C139.71665364 125.22535902 139.71115198 117.50838816 139.7061311 109.791412 C139.6956753 93.91671813 139.67808318 78.04204034 139.6558075 62.1673584 C138.66250427 62.1580127 137.66920105 62.14866699 136.64579773 62.13903809 C132.93474177 62.09894527 129.22449814 62.03313528 125.51396179 61.95983887 C123.91283156 61.93174036 122.31156547 61.9104708 120.71025085 61.8963623 C118.39843254 61.8747767 116.08822835 61.82805281 113.77690125 61.7767334 C112.715532 61.77489044 112.715532 61.77489044 111.63272095 61.77301025 C106.16369588 61.6144608 103.08691043 60.14596093 98.6558075 57.1673584 C96.91362 55.20251465 96.91362 55.20251465 95.7808075 53.2298584 C95.39151062 52.58145996 95.00221375 51.93306152 94.60112 51.26501465 C92.5217836 46.65095 92.48338993 41.89629138 92.33940125 36.89782715 C92.31862015 36.21682449 92.29783905 35.53582184 92.27642822 34.83418274 C92.21142872 32.67450332 92.15228037 30.51470994 92.0933075 28.3548584 C92.050075 26.88414384 92.00645925 25.41344049 91.96244812 23.94274902 C91.85579891 20.35107123 91.75439401 16.75926758 91.6558075 13.1673584 C79.35580074 13.05153121 67.05592363 12.96267651 54.75548267 12.90829754 C49.04392045 12.88219884 43.33273121 12.84679501 37.62138367 12.79016113 C32.11004659 12.73585229 26.59906836 12.70593992 21.08748436 12.69297218 C18.98428891 12.68373037 16.88111321 12.66568319 14.77807045 12.63870811 C11.83299374 12.60243336 8.88940158 12.59741247 5.94413757 12.59973145 C5.07379379 12.58175507 4.20345001 12.56377869 3.30673218 12.54525757 C2.09740524 12.55556755 2.09740524 12.55556755 0.86364746 12.56608582 C0.16769376 12.56147685 -0.52825994 12.55686789 -1.24530315 12.55211926 C-4.66475603 13.55444997 -6.17570134 15.39986013 -8.3441925 18.1673584 Z " fill="#F6F6F6" transform="translate(81.34419250488281,21.8326416015625)"/>
<path d="M0 0 C3.96 0 7.92 0 12 0 C12 2.64 12 5.28 12 8 C12.804375 8 13.60875 8 14.4375 8 C20.17575044 9.61073697 25.07148906 13.93953698 28.2578125 18.99609375 C29.50294504 22.35795162 29.11862052 25.44138426 29 29 C24.71 29 20.42 29 16 29 C15.505 25.535 15.505 25.535 15 22 C11.78586882 21.06539448 8.78095451 20.77392944 5.4375 20.6875 C4.48746094 20.65011719 3.53742188 20.61273438 2.55859375 20.57421875 C-0.11899244 20.76384568 -0.11899244 20.76384568 -1.81640625 22.828125 C-3.41053516 25.75332525 -3.41900445 27.7177985 -3 31 C-0.9616661 33.55249768 0.83764398 34.49442066 3.94921875 35.359375 C4.71161865 35.58423584 5.47401855 35.80909668 6.25952148 36.04077148 C7.06075439 36.27481689 7.8619873 36.5088623 8.6875 36.75 C17.35781773 39.47122778 23.17938585 42.32835782 28 50.3125 C29.53303052 55.96555004 30.28502759 60.92858935 27.96875 66.46484375 C24.54962223 72.17288761 20.22471912 75.64053504 14 78 C13.01 78 12.02 78 11 78 C11 80.64 11 83.28 11 86 C7.7 86 4.4 86 1 86 C1 83.36 1 80.72 1 78 C0.13375 77.9175 -0.7325 77.835 -1.625 77.75 C-7.17569128 76.51651305 -10.60856043 73.93427489 -13.8125 69.3125 C-16.39148645 64.92326344 -16.76377255 61.03951893 -17 56 C-12.71 56 -8.42 56 -4 56 C-3.34 57.98 -2.68 59.96 -2 62 C-0.15769818 64.12573287 1.1058442 64.88409091 3.8984375 65.24609375 C7.68125669 65.36562521 10.82776507 65.28400915 14 63 C15.455276 60.08944799 15.45067148 58.21908202 15 55 C10.65796676 51.42854365 6.46352622 50.21635768 1.0625 49.1875 C-5.65256252 47.70094779 -10.17427365 45.90112038 -14 40 C-17.22189797 34.49159379 -17.99367361 29.2486783 -17 23 C-14.68053819 16.32080905 -10.33945911 11.2138411 -4 8 C-2.68 8 -1.36 8 0 8 C0 5.36 0 2.72 0 0 Z " fill="#F5F5F5" transform="translate(122,52)"/>
<path d="M0 0 C1.9375 1.125 1.9375 1.125 3 3 C3.55974823 7.00883902 3.34125172 8.54073138 0.89421082 11.83404541 C-0.0861106 12.8347208 -1.08319775 13.81913987 -2.09301758 14.79003906 C-2.90508919 15.60583435 -2.90508919 15.60583435 -3.73356628 16.43811035 C-5.52321153 18.22867241 -7.33327372 19.99694984 -9.14453125 21.765625 C-10.39411312 23.00654988 -11.64244359 24.24873604 -12.88957214 25.49212646 C-16.17466045 28.75999028 -19.47780164 32.00901728 -22.78460693 35.25488281 C-25.48168415 37.90836844 -28.16571093 40.57483933 -30.84912586 43.24213028 C-34.04751984 46.42091519 -37.2513477 49.59419303 -40.45703125 52.765625 C-41.06911753 53.37128548 -41.6812038 53.97694595 -42.31183815 54.60095978 C-44.04462629 56.31276039 -45.7809918 58.02083548 -47.51879883 59.72753906 C-48.03165436 60.2345636 -48.54450989 60.74158813 -49.07290649 61.26397705 C-54.8456439 66.91471 -54.8456439 66.91471 -59.06640625 67.2265625 C-65.05899733 66.14729826 -68.97040226 60.59506346 -72.9375 56.375 C-74.65256312 54.58885288 -76.36997831 52.80496097 -78.08984375 51.0234375 C-78.91339355 50.16588867 -79.73694336 49.30833984 -80.58544922 48.42480469 C-83.39712015 45.60119339 -86.34270051 43.0021443 -89.40844727 40.45947266 C-91.96038422 38.11931633 -92.95328907 36.44842495 -93.3125 33 C-93 30 -93 30 -91.9375 28.0625 C-88.76380797 26.32208824 -86.44099719 27.18309202 -83 28 C-80.81871464 29.67000365 -79.13496373 31.15642588 -77.28515625 33.12890625 C-76.78455185 33.63800034 -76.28394745 34.14709442 -75.76817322 34.6716156 C-74.18487384 36.28829066 -72.62380906 37.9246066 -71.0625 39.5625 C-69.98773454 40.66738545 -68.9115753 41.77091692 -67.83398438 42.87304688 C-65.20627097 45.5666333 -62.59828734 48.27802999 -60 51 C-56.26285203 49.44854087 -53.96040888 47.16155363 -51.15893555 44.27490234 C-50.69167053 43.79668533 -50.22440552 43.31846832 -49.74298096 42.82575989 C-48.73203757 41.79052839 -47.72326405 40.7531744 -46.71643639 39.71393967 C-45.12028993 38.06900653 -43.51581137 36.43266084 -41.90840149 34.79873657 C-37.33988898 30.15399338 -32.77822727 25.50286488 -28.2434082 20.82519531 C-25.46582814 17.96135812 -22.67137757 15.11495429 -19.86530495 12.27904129 C-18.80112475 11.19693154 -17.74340692 10.10842616 -16.69244957 9.0134697 C-15.22055575 7.48121041 -13.72811681 5.97212544 -12.22924805 4.46630859 C-10.96494209 3.1696376 -10.96494209 3.1696376 -9.6750946 1.84677124 C-6.23964637 -0.52491572 -4.09162061 -0.43404045 0 0 Z " fill="#F7F7F7" transform="translate(199,132)"/>
<path d="M0 0 C5.82628086 4.80809586 11.17223502 10.01804955 16.50024414 15.36987305 C17.95539571 16.83046259 19.41591857 18.28553203 20.87695312 19.74023438 C21.79283203 20.65740234 22.70871094 21.57457031 23.65234375 22.51953125 C24.48757568 23.35589111 25.32280762 24.19225098 26.18334961 25.05395508 C28 27 28 27 28 28 C24.25026094 28.11622939 20.50098536 28.1872595 16.75 28.25 C15.68652344 28.28351563 14.62304688 28.31703125 13.52734375 28.3515625 C12.50253906 28.36445312 11.47773438 28.37734375 10.421875 28.390625 C9.47924805 28.41157227 8.53662109 28.43251953 7.56542969 28.45410156 C4.2236238 27.86257521 3.08761664 26.61987017 1 24 C0.01956036 21.05868109 -0.11621202 19.17498335 -0.09765625 16.11328125 C-0.09443359 15.17548828 -0.09121094 14.23769531 -0.08789062 13.27148438 C-0.07532227 11.80678711 -0.07532227 11.80678711 -0.0625 10.3125 C-0.05798828 9.32443359 -0.05347656 8.33636719 -0.04882812 7.31835938 C-0.03704303 4.87884526 -0.02059011 2.43945311 0 0 Z " fill="#292929" transform="translate(185,44)"/>
</svg>
